<svg width="68" height="68" viewBox="0 0 68 68" fill="none" xmlns="http://www.w3.org/2000/svg">
<g clip-path="url(#clip0_708_61)">
<path d="M6.53846 68C10.1496 68 13.0769 65.0726 13.0769 61.4616C13.0769 57.8505 10.1496 54.9231 6.53846 54.9231C2.92737 54.9231 0 57.8505 0 61.4616C0 65.0726 2.92737 68 6.53846 68Z" fill="#EA580B"/>
<path d="M6.53846 49.6924C10.1496 49.6924 13.0769 46.765 13.0769 43.1539C13.0769 39.5428 10.1496 36.6155 6.53846 36.6155C2.92737 36.6155 0 39.5428 0 43.1539C0 46.765 2.92737 49.6924 6.53846 49.6924Z" fill="#EA580B"/>
<path d="M6.53846 31.3845C10.1496 31.3845 13.0769 28.4572 13.0769 24.8461C13.0769 21.235 10.1496 18.3076 6.53846 18.3076C2.92737 18.3076 0 21.235 0 24.8461C0 28.4572 2.92737 31.3845 6.53846 31.3845Z" fill="#EA580B"/>
<path d="M6.53846 13.0769C10.1496 13.0769 13.0769 10.1496 13.0769 6.53846C13.0769 2.92737 10.1496 0 6.53846 0C2.92737 0 0 2.92737 0 6.53846C0 10.1496 2.92737 13.0769 6.53846 13.0769Z" fill="#EA580B"/>
<path d="M24.8461 13.0769C28.4572 13.0769 31.3846 10.1496 31.3846 6.53846C31.3846 2.92737 28.4572 0 24.8461 0C21.235 0 18.3077 2.92737 18.3077 6.53846C18.3077 10.1496 21.235 13.0769 24.8461 13.0769Z" fill="#EA580B"/>
<path d="M43.1538 13.0769C46.7649 13.0769 49.6923 10.1496 49.6923 6.53846C49.6923 2.92737 46.7649 0 43.1538 0C39.5427 0 36.6154 2.92737 36.6154 6.53846C36.6154 10.1496 39.5427 13.0769 43.1538 13.0769Z" fill="#EA580B"/>
<path d="M43.1538 31.3845C46.7649 31.3845 49.6923 28.4572 49.6923 24.8461C49.6923 21.235 46.7649 18.3076 43.1538 18.3076C39.5427 18.3076 36.6154 21.235 36.6154 24.8461C36.6154 28.4572 39.5427 31.3845 43.1538 31.3845Z" fill="#EA580B"/>
<path d="M24.8461 68C28.4572 68 31.3846 65.0726 31.3846 61.4616C31.3846 57.8505 28.4572 54.9231 24.8461 54.9231C21.235 54.9231 18.3077 57.8505 18.3077 61.4616C18.3077 65.0726 21.235 68 24.8461 68Z" fill="#EA580B"/>
<path d="M24.8461 49.6924C28.4572 49.6924 31.3846 46.765 31.3846 43.1539C31.3846 39.5428 28.4572 36.6155 24.8461 36.6155C21.235 36.6155 18.3077 39.5428 18.3077 43.1539C18.3077 46.765 21.235 49.6924 24.8461 49.6924Z" fill="#EA580B"/>
<path d="M43.1538 68C46.7649 68 49.6923 65.0726 49.6923 61.4616C49.6923 57.8505 46.7649 54.9231 43.1538 54.9231C39.5427 54.9231 36.6154 57.8505 36.6154 61.4616C36.6154 65.0726 39.5427 68 43.1538 68Z" fill="#EA580B"/>
<path d="M43.1538 49.6924C46.7649 49.6924 49.6923 46.765 49.6923 43.1539C49.6923 39.5428 46.7649 36.6155 43.1538 36.6155C39.5427 36.6155 36.6154 39.5428 36.6154 43.1539C36.6154 46.765 39.5427 49.6924 43.1538 49.6924Z" fill="#EA580B"/>
<path d="M24.8461 31.3845C28.4572 31.3845 31.3846 28.4572 31.3846 24.8461C31.3846 21.235 28.4572 18.3076 24.8461 18.3076C21.235 18.3076 18.3077 21.235 18.3077 24.8461C18.3077 28.4572 21.235 31.3845 24.8461 31.3845Z" fill="#EA580B"/>
<path d="M61.4616 68C65.0726 68 68 65.0726 68 61.4616C68 57.8505 65.0726 54.9231 61.4616 54.9231C57.8505 54.9231 54.9231 57.8505 54.9231 61.4616C54.9231 65.0726 57.8505 68 61.4616 68Z" fill="#EA580B"/>
<path d="M61.4616 49.6924C65.0726 49.6924 68 46.765 68 43.1539C68 39.5428 65.0726 36.6155 61.4616 36.6155C57.8505 36.6155 54.9231 39.5428 54.9231 43.1539C54.9231 46.765 57.8505 49.6924 61.4616 49.6924Z" fill="#EA580B"/>
<path d="M61.4616 31.3845C65.0726 31.3845 68 28.4572 68 24.8461C68 21.235 65.0726 18.3076 61.4616 18.3076C57.8505 18.3076 54.9231 21.235 54.9231 24.8461C54.9231 28.4572 57.8505 31.3845 61.4616 31.3845Z" fill="#EA580B"/>
<path d="M61.4616 13.0769C65.0726 13.0769 68 10.1496 68 6.53846C68 2.92737 65.0726 0 61.4616 0C57.8505 0 54.9231 2.92737 54.9231 6.53846C54.9231 10.1496 57.8505 13.0769 61.4616 13.0769Z" fill="#EA580B"/>
<path d="M8.31787 21.7401L20.6708 8.27954L22.3998 9.86632L10.0469 23.3269L8.31787 21.7401Z" fill="#EA580B"/>
<path d="M5.23035 60.1541H23.5V62.5008H5.23035V60.1541Z" fill="#EA580B"/>
<path d="M44.4613 57.9228L56.8143 44.4622L58.5433 46.0489L46.1903 59.5095L44.4613 57.9228Z" fill="#EA580B"/>
<path d="M60.1541 23.5006V5.23096H62.5009V23.5006H60.1541Z" fill="#EA580B"/>
<path d="M26.1537 42.2304L38.5066 28.7698L40.2356 30.3565L27.8826 43.8171L26.1537 42.2304Z" fill="#EA580B"/>
<path d="M7.84601 39.6149L20.1989 26.1543L21.9279 27.7411L9.57507 41.2017L7.84601 39.6149Z" fill="#EA580B"/>
</g>
<defs>
<clipPath id="clip0_708_61">
<rect width="68" height="68" fill="white"/>
</clipPath>
</defs>
</svg>
